<svg width="280" height="174" viewBox="0 0 280 174" fill="none" xmlns="http://www.w3.org/2000/svg">
<path d="M134.501 8.4001C131.545 8.65566 128.868 9.11121 126.134 9.83344C124.934 10.1445 122.457 10.9112 121.612 11.2223C120.079 11.789 119.212 12.1223 118.612 12.389C118.245 12.5445 117.845 12.7223 117.723 12.7668C116.59 13.2668 114.034 14.5668 112.501 15.4334C111.112 16.2223 107.768 18.5557 105.612 20.2334C100.923 23.9001 96.2344 29.4112 93.2233 34.8334C92.8344 35.5334 91.5233 38.1445 91.1344 39.0001C90.4788 40.4557 89.2233 43.9334 88.7788 45.5557C88.701 45.8334 88.601 46.1779 88.5566 46.3334C88.4677 46.6001 88.3455 47.1223 88.1121 48.1668C88.0566 48.4445 87.9566 48.8779 87.8899 49.1334C87.6121 50.3445 87.3566 51.989 87.0899 54.1112C86.8677 55.889 86.9121 62.5223 87.1455 64.4445C87.3788 66.2779 87.5899 67.5779 87.901 69.1112C88.2788 70.989 88.3899 71.4334 88.8788 73.2779C89.1899 74.4112 90.2233 77.3445 90.7233 78.5001C93.5344 85.0223 97.1677 90.389 102.112 95.3334C105.779 99.0001 109.59 101.889 114.279 104.556C114.812 104.867 117.957 106.433 118.668 106.756C120.59 107.622 124.479 109.011 126.501 109.556C129.09 110.256 132.345 110.911 134.834 111.211C137.657 111.567 138.29 111.6 142.279 111.6C146.657 111.6 147.545 111.545 151.223 110.989C153.223 110.689 156.801 109.922 157.89 109.567C158.045 109.511 158.39 109.411 158.668 109.333C159.723 109.033 161.901 108.278 163.501 107.645C168.257 105.756 172.145 103.611 176.112 100.678C176.823 100.145 179.168 98.289 179.334 98.1112C179.368 98.0779 179.668 97.8112 180.001 97.5112C182.045 95.6779 184.301 93.3334 185.901 91.389C188.379 88.3557 190.479 85.1223 192.201 81.6779L193.057 79.9668V78.6779C193.057 77.389 193.057 77.389 192.59 76.4334C192.034 75.3112 191.279 74.5445 190.19 74.0001C188.457 73.1557 186.823 73.1334 185.234 73.9334C184.079 74.5223 183.501 75.2223 182.423 77.3112C181.123 79.8445 179.49 82.3668 177.679 84.6334C177.523 84.8334 177.368 84.9445 177.334 84.889C177.301 84.8334 177.301 84.4223 177.345 83.9779C177.39 83.5334 177.434 82.2668 177.434 81.1668C177.445 78.4557 177.223 77.3112 176.245 75.2223C176.079 74.8557 175.445 73.8557 174.823 72.9779L174.534 72.5668L174.99 71.9112C175.234 71.5445 175.679 70.7445 175.979 70.1334C176.979 68.1112 177.634 66.2445 178.334 63.4445C178.401 63.2001 178.49 62.8112 178.557 62.5779C179.279 59.7334 179.423 54.8445 178.89 50.889C178.612 48.8001 177.757 45.3112 177.112 43.6112C176.934 43.1223 176.779 42.689 176.779 42.6445C176.779 42.6001 176.657 42.3001 176.512 41.9779C176.368 41.6557 175.99 40.789 175.668 40.0557C173.023 34.0001 168.179 28.389 162.334 24.6001C160.645 23.5112 158.49 22.3446 157.223 21.8446C156.945 21.7334 156.579 21.5779 156.39 21.5001C154.023 20.4779 150.89 19.6779 147.223 19.1668C145.834 18.9668 140.534 18.9334 139.301 19.1112C136.712 19.489 135.957 19.6334 134.379 20.0668C133.001 20.4557 131.112 21.0445 130.723 21.2112C130.09 21.489 129.679 21.6668 129.223 21.8446C128.634 22.0668 125.857 23.489 125.057 23.9668C123.512 24.889 121.901 26.0223 120.668 27.0445C117.834 29.4001 116.223 31.1334 113.934 34.2779C112.801 35.8334 110.634 39.7223 110.012 41.3112C108.845 44.3223 108.368 45.8557 107.779 48.5001C107.312 50.6001 107.001 53.589 107.001 55.8668C107.012 60.9334 108.323 66.3001 110.745 71.1334C111.123 71.9001 111.445 72.589 111.445 72.6668C111.445 72.7445 111.179 73.2112 110.857 73.7001C109.657 75.5334 109.057 77.389 108.934 79.6668C108.857 80.9223 108.89 81.1112 109.301 82.9668C109.334 83.1112 109.312 83.2223 109.257 83.2223C108.912 83.2223 105.612 80.0668 104.534 78.7112C102.523 76.189 100.712 72.7112 99.8344 69.7223C99.7344 69.3557 99.601 68.9334 99.5566 68.7779C99.3455 68.1779 98.8788 65.8445 98.6788 64.5001C98.3121 61.9779 98.2788 61.4557 98.2788 57.6112C98.2788 53.4001 98.3566 52.3223 98.9121 49.3334C99.9899 43.4223 102.245 37.9334 105.801 32.6112C107.868 29.5223 110.245 26.8668 113.612 23.889C115.001 22.6668 117.579 20.7779 119.39 19.6668C120.834 18.7779 122.934 17.689 125.023 16.7445C125.923 16.3223 128.957 15.2001 129.723 14.989C129.912 14.9445 130.234 14.8557 130.445 14.789C132.623 14.189 134.901 13.689 136.612 13.4557C137.101 13.3779 137.823 13.2779 138.223 13.2223C140.168 12.9445 142.801 12.8668 147.557 12.9223C150.279 12.9557 153.279 13.0334 154.223 13.1001C155.168 13.1557 156.723 13.2668 157.668 13.3223C158.612 13.389 160.312 13.5001 161.445 13.5668C163.323 13.6779 163.568 13.7112 164.257 14.0112C165.179 14.4001 165.245 14.4001 165.39 14.089C165.457 13.9445 165.601 13.8112 165.723 13.789C166.234 13.7001 166.39 13.2668 166.001 13.0223C165.868 12.9445 165.779 12.7668 165.779 12.5668C165.779 12.189 165.59 12.1112 164.668 12.1112C163.923 12.1001 163.612 12.0334 162.112 11.5001C160.412 10.9001 159.779 10.7112 157.334 10.0779C153.979 9.21121 149.112 8.44455 146.901 8.44455C146.201 8.44455 145.945 8.57788 146.368 8.73344C146.523 8.78899 146.045 8.84455 145.09 8.87788C144.257 8.91122 143.534 8.97788 143.49 9.02232C143.445 9.07788 143.657 9.11121 143.968 9.11121C144.923 9.11121 149.612 9.71121 151.723 10.1112C153.068 10.3557 153.523 10.4557 153.945 10.5445C154.19 10.6001 154.668 10.7001 155.001 10.7779C156.501 11.1112 157.223 11.3001 157.312 11.389C157.401 11.489 155.834 11.4001 154.112 11.2223C147.623 10.5557 141.001 10.5112 136.279 11.1223C133.501 11.4779 130.268 12.1779 127.901 12.9445C127.257 13.1557 126.401 13.4334 126.001 13.5668C123.145 14.489 119.979 16.0668 116.668 18.2001C115.434 19.0001 114.923 19.3557 113.501 20.4334C112.001 21.5779 109.79 23.5445 108.512 24.9001C107.101 26.3779 106.479 27.1112 104.879 29.1112C104.179 29.989 102.001 33.2779 101.301 34.5112C99.9344 36.9223 98.4344 40.3112 97.5788 42.9445C97.1899 44.1445 97.0788 44.489 96.7677 45.6112C96.1677 47.7334 95.6233 50.9445 95.3344 54.1668C94.9455 58.3668 95.4233 64.5557 96.4455 68.7445C97.4677 72.889 99.3899 77.0668 101.523 79.7779C101.59 79.8668 101.968 80.3445 102.345 80.8334C103.223 81.9557 105.123 83.9112 106.279 84.8668C106.768 85.2779 107.19 85.6334 107.223 85.6668C107.59 86.0668 110.645 88.1334 112.257 89.0779C113.312 89.689 117.279 91.689 118.557 92.2557C119.534 92.689 122.012 93.6779 122.512 93.8334C122.812 93.9334 123.157 94.0557 123.279 94.1112C123.523 94.2112 125.245 94.7445 126.501 95.1001C128.69 95.7223 131.257 96.2445 134.001 96.6112C137.012 97.0112 141.934 97.1334 143.79 96.8334C145.001 96.6445 145.868 96.4334 146.945 96.0557C147.757 95.7668 148.523 95.4001 149.568 94.8001C150.634 94.189 151.168 93.789 153.945 91.5668C159.623 87.0112 159.634 87.0001 160.223 87.0001C160.679 87.0001 160.834 87.0557 161.157 87.3334C161.757 87.8668 161.857 88.3112 161.557 89.1445C161.434 89.5223 161.279 89.9334 161.223 90.0557C161.134 90.2557 160.223 92.689 159.49 94.6668C159.168 95.5445 159.157 96.089 159.445 96.6668C159.734 97.2334 160.245 97.5779 160.879 97.6334C161.345 97.6779 163.479 97.3779 164.645 97.1112C164.901 97.0445 165.345 96.9445 165.645 96.8779C168.257 96.3001 171.134 95.1334 173.068 93.8779C176.179 91.8557 179.845 87.989 182.745 83.6668C183.468 82.5779 185.068 79.8445 185.623 78.7334C185.857 78.2445 186.268 77.6334 186.523 77.3668C186.957 76.9334 187.045 76.889 187.545 76.889C188.19 76.889 188.601 77.0334 189.034 77.4334C189.368 77.7334 189.668 78.3223 189.668 78.6668C189.668 78.889 188.145 81.9223 187.779 82.4445C187.657 82.6112 187.557 82.789 187.557 82.8334C187.557 82.8668 187.401 83.1223 187.223 83.389C187.045 83.6557 186.89 83.9001 186.89 83.9445C186.89 84.2112 183.879 88.2668 182.479 89.889C177.045 96.1668 170.112 101.078 162.334 104.167C161.757 104.389 161.179 104.622 161.057 104.678C160.723 104.811 158.29 105.611 157.223 105.922C152.812 107.245 147.257 108.011 142.234 108C140.223 107.989 137.023 107.789 135.334 107.556C133.323 107.289 132.512 107.145 131.39 106.9C131.145 106.845 130.545 106.722 130.057 106.622C125.534 105.667 119.89 103.5 115.857 101.156C115.501 100.945 115.19 100.778 115.168 100.778C115.101 100.778 112.479 99.1334 111.857 98.7001C108.557 96.4001 106.145 94.3334 103.445 91.489C99.4344 87.2779 95.9899 81.9001 93.8455 76.5001C93.5455 75.7668 93.2677 75.0668 93.2121 74.9445C92.9566 74.3334 92.2677 72.089 91.8899 70.6112C91.1121 67.6112 90.801 65.7668 90.4455 62.1334C90.301 60.6557 90.301 56.289 90.4455 54.9112C90.601 53.4334 90.7788 52.0445 90.8899 51.4445C90.9455 51.1668 91.0455 50.6223 91.1121 50.2223C91.5899 47.4557 92.4566 44.1668 93.2233 42.2779C93.2677 42.1557 93.4788 41.6334 93.6677 41.1112C94.1788 39.7668 95.7344 36.5001 96.3344 35.5001C96.4455 35.3112 96.6233 34.989 96.7455 34.7668C97.5455 33.2445 99.7455 30.089 101.223 28.3223C102.934 26.289 105.568 23.6334 107.623 21.889C110.657 19.3112 114.79 16.5223 117.668 15.1445C118.879 14.5668 120.49 13.8334 120.945 13.6445C121.257 13.5223 121.657 13.3668 121.834 13.2779C122.257 13.1001 123.501 12.6223 125.501 11.8779C127.068 11.3001 127.423 11.1779 128.09 10.989C128.279 10.9334 128.634 10.8334 128.868 10.7668C130.901 10.189 135.945 9.21121 137.945 9.00011C139.601 8.83344 140.69 8.64455 140.59 8.54455C140.501 8.46677 135.257 8.33344 134.501 8.4001ZM143.323 23.1334C143.957 23.5112 145.945 25.0668 147.223 26.1668C149.134 27.8112 151.668 30.4001 152.934 32.0001C154.068 33.4223 155.912 36.089 156.49 37.1334C157.079 38.2001 157.779 39.5779 157.779 39.6668C157.779 39.7668 157.468 39.8334 155.334 40.2779C152.401 40.8668 150.234 41.1001 145.334 41.3334C141.679 41.5112 141.445 41.5001 136.779 41.1112C134.868 40.9445 133.957 40.8223 131.979 40.4445C130.234 40.1112 129.645 39.989 128.845 39.7779C128.357 39.6557 127.945 39.5557 127.923 39.5557C127.612 39.5557 129.123 36.8557 130.868 34.3334C132.079 32.5668 133.39 31.0445 135.434 29.0001C137.223 27.2112 138.023 26.5001 139.601 25.289C141.612 23.7445 141.99 23.4557 142.39 23.189C142.634 23.0223 142.845 22.889 142.879 22.889C142.901 22.889 143.101 23.0001 143.323 23.1334ZM136.557 23.2779C136.557 23.3112 136.045 23.8223 135.423 24.4223C133.379 26.3779 132.29 27.5001 131.445 28.5001C130.357 29.8112 129.645 30.7001 129.245 31.2779C128.99 31.6445 128.645 32.1445 128.468 32.389C128.157 32.8334 126.89 34.8779 126.89 34.9445C126.89 34.9557 126.623 35.4445 126.301 36.0112C125.712 37.0668 125.223 38.0334 125.223 38.189C125.223 38.2445 125.145 38.3668 125.068 38.4779C124.923 38.6557 124.879 38.6557 124.323 38.5112C123.99 38.4112 123.145 38.189 122.445 38.0001C120.979 37.6001 120.068 37.3001 119.401 37.0112C119.157 36.9001 118.768 36.7445 118.557 36.6668C118.345 36.589 117.968 36.4445 117.723 36.3223C117.479 36.2112 117.145 36.0668 116.979 36.0001C116.801 35.9445 116.668 35.8445 116.668 35.789C116.668 35.3779 119.734 32.0112 121.357 30.6445C125.69 26.989 129.579 24.9223 134.612 23.5779C134.857 23.5112 135.234 23.4112 135.445 23.3557C135.879 23.2334 136.557 23.189 136.557 23.2779ZM150.401 23.3223C150.579 23.3779 150.923 23.4779 151.168 23.5445C157.345 25.2445 162.912 28.7557 167.179 33.6112C168.534 35.1557 168.934 35.7557 168.779 35.9445C168.701 36.0334 168.557 36.1112 168.445 36.1112C168.334 36.1112 168.034 36.2334 167.768 36.3779C167.501 36.5334 166.957 36.7779 166.557 36.9223C164.257 37.8001 163.69 38.0001 163.468 38.0001C163.334 38.0001 163.134 38.0445 163.023 38.1112C162.601 38.3445 161.423 38.6779 161.334 38.6001C161.29 38.5445 160.834 37.6779 160.323 36.6668C158.012 32.0779 154.434 27.5668 150.39 24.089C150.212 23.9334 149.912 23.6779 149.723 23.5112L149.39 23.2334L149.734 23.2223C149.923 23.2223 150.223 23.2668 150.401 23.3223ZM170.412 37.9668C171.412 39.5001 172.857 42.4557 173.645 44.5557C174.023 45.589 174.09 45.789 174.434 47.0223C174.501 47.2557 174.601 47.6112 174.657 47.8001C175.234 49.8445 175.501 51.1001 175.779 53.1112C175.845 53.6334 175.957 54.3112 176.012 54.6334C176.179 55.5112 176.19 60.7779 176.023 61.8334C175.945 62.3223 175.834 63.1001 175.768 63.5557C175.579 64.9334 175.357 65.9779 174.934 67.489C174.712 68.289 174.49 69.1557 174.445 69.4334C174.301 70.2334 174.168 70.6779 173.912 71.2557L173.668 71.8001L173.034 71.2223C172.279 70.5557 171.112 69.7668 170.212 69.3223C169.857 69.1445 169.534 68.9445 169.501 68.889C169.457 68.8223 169.568 68.6668 169.745 68.5334C171.234 67.4001 172.323 65.0001 172.334 62.8334C172.334 60.5557 171.49 58.489 169.89 56.8779C168.423 55.4112 167.101 54.7445 165.234 54.5557C164.723 54.5001 164.257 54.4112 164.201 54.3557C164.145 54.3001 164.168 53.6779 164.234 52.9223C164.334 51.8779 164.334 51.1001 164.234 49.489C164.168 48.3445 164.057 47.2001 164.001 46.9557C163.957 46.7001 163.845 46.2001 163.779 45.8334C163.701 45.4668 163.601 45.0445 163.557 44.889C163.512 44.7334 163.412 44.389 163.334 44.1112C163.257 43.8334 163.034 43.1112 162.823 42.5001C162.545 41.6445 162.49 41.3557 162.59 41.2557C162.668 41.189 163.123 40.9668 163.612 40.7779C165.09 40.2001 166.757 39.189 168.668 37.7334C169.19 37.3445 169.645 37.0112 169.701 37.0112C169.745 37.0001 170.068 37.4334 170.412 37.9668ZM116.423 37.8779C117.634 38.9112 119.612 40.3334 119.834 40.3334C119.868 40.3334 120.257 40.5001 120.712 40.7112C121.879 41.2557 123.012 41.7445 123.312 41.8334C123.601 41.9223 123.612 42.0112 123.379 42.6668C122.39 45.4445 122.001 48.0223 122.001 51.8557C122.001 53.389 121.957 54.3445 121.89 54.389C121.823 54.4223 121.368 54.5001 120.857 54.5557C119.568 54.689 118.968 54.8557 117.912 55.3557C115.801 56.3779 114.368 58.0557 113.557 60.4445C113.223 61.4445 113.134 63.5334 113.379 64.5779C113.734 66.089 114.434 67.2779 115.523 68.2223C115.834 68.5001 116.101 68.7779 116.101 68.8557C116.112 68.9223 115.89 69.089 115.623 69.2223C115.001 69.5334 113.768 70.4557 113.057 71.1334C112.501 71.6668 112.112 71.8112 112.112 71.5001C112.112 71.4112 112.068 71.2445 112.012 71.1334C111.957 71.0334 111.857 70.789 111.779 70.6112C111.701 70.4223 111.601 70.1779 111.545 70.0557C111.312 69.4779 110.968 68.3334 110.89 67.8334C110.845 67.5223 110.69 66.9223 110.557 66.5001C110.19 65.3334 110.134 65.0445 109.957 63.8334C109.523 60.789 109.368 57.7001 109.557 55.889C109.634 55.2445 109.723 54.2445 109.779 53.6668C109.89 52.4334 109.968 51.8223 110.112 51.0557C110.179 50.7445 110.301 50.1001 110.39 49.6112C110.723 47.889 111.768 44.4223 112.034 44.1445C112.079 44.1112 112.112 44.0112 112.112 43.9334C112.112 43.6668 113.612 40.4779 114.312 39.2779C114.979 38.1112 115.512 37.3334 115.645 37.3334C115.734 37.3334 116.079 37.5779 116.423 37.8779ZM159.379 43.0223C160.257 44.989 161.134 47.3445 161.379 48.389C161.468 48.7557 161.668 49.5779 161.823 50.2223C161.979 50.8668 162.157 51.7668 162.212 52.2223C162.279 52.6779 162.401 53.2779 162.49 53.5445C162.59 53.8112 162.668 54.1668 162.668 54.3334C162.668 54.6223 162.612 54.6557 162.09 54.7779C161.134 54.989 159.557 55.8223 158.79 56.5112C158.101 57.1445 157.334 58.0668 156.934 58.7779C155.623 61.0779 155.534 64.2779 156.734 66.4112C157.179 67.2001 158.268 68.4223 158.845 68.789C159.157 68.9779 159.201 69.0557 159.101 69.1779C159.034 69.2668 158.923 69.3334 158.868 69.3334C158.679 69.3334 156.912 70.5334 156.379 71.0223C155.901 71.4557 155.001 72.6557 155.001 72.8445C155.001 72.889 154.923 73.0223 154.823 73.1334C154.645 73.3223 154.612 73.3001 154.223 72.6223C153.101 70.7112 151.334 69.0334 149.234 67.9112L148.19 67.3557L148.634 67.0334C149.268 66.589 150.112 65.2557 150.534 64.0557C151.757 60.5223 150.445 56.6223 147.312 54.489C145.934 53.5334 144.879 53.2223 143.112 53.2223C140.068 53.2223 137.89 54.2779 136.157 56.6112C134.79 58.4334 134.212 61.1445 134.723 63.3112C134.901 64.0668 135.523 65.5112 135.79 65.7779C135.879 65.8668 136.023 66.0445 136.112 66.1779C136.201 66.3112 136.534 66.6223 136.834 66.889C137.645 67.5779 137.645 67.6112 136.979 67.9334C135.323 68.7445 133.068 70.889 131.768 72.889L131.59 73.1668L131.279 72.5112C130.757 71.4001 129.501 70.2779 127.157 68.8112C126.957 68.689 126.979 68.6445 127.457 68.2001C129.157 66.6223 130.034 63.6557 129.512 61.2223C129.112 59.3334 128.434 58.0668 127.123 56.7779C126.101 55.7779 124.957 55.0779 123.857 54.7779C123.557 54.7001 123.29 54.5557 123.245 54.4668C123.212 54.3779 123.245 53.9445 123.323 53.5112C123.39 53.0779 123.501 52.3001 123.568 51.7779C123.657 51.0001 124.323 48.189 124.668 47.1112C124.712 46.9557 124.823 46.6112 124.901 46.3334C124.979 46.0557 125.112 45.7334 125.179 45.6112C125.257 45.489 125.445 45.0112 125.601 44.5557C125.757 44.1001 125.957 43.5334 126.057 43.289C126.245 42.8334 126.223 42.8445 127.112 43.1001C127.323 43.1557 128.201 43.3779 129.057 43.6001C130.445 43.9445 131.245 44.1001 133.501 44.4445C136.134 44.8445 141.012 45.0557 144.057 44.9001C145.345 44.8334 146.745 44.7223 147.168 44.6668C147.601 44.6112 148.468 44.5112 149.112 44.4445C150.445 44.3001 153.423 43.8445 154.334 43.6557C154.945 43.5223 155.412 43.4001 157.001 42.989C157.457 42.8668 158.001 42.7223 158.201 42.6668C158.412 42.6223 158.601 42.5445 158.634 42.5112C158.679 42.4779 158.801 42.4445 158.912 42.4445C159.045 42.4445 159.201 42.6334 159.379 43.0223ZM144.134 56.789C146.39 57.2557 148.001 59.3445 148.001 61.8223C148.001 63.2557 147.657 64.1112 146.412 65.7223L145.812 66.5001H143.268L140.723 66.5112L140.445 66.2112C139.523 65.2445 139.112 64.6668 138.657 63.7779C138.29 63.0779 138.279 63.0112 138.279 61.7223C138.279 60.4112 138.29 60.3779 138.69 59.5557C139.112 58.7001 139.834 57.8557 140.568 57.3668C141.501 56.7557 142.879 56.5334 144.134 56.789ZM122.79 58.1112C124.512 58.4334 125.912 59.8112 126.501 61.7445C126.712 62.4223 126.712 63.9001 126.512 64.5668C126.245 65.4445 125.657 66.4001 124.79 67.4001L124.423 67.8112L123.179 67.6779C122.257 67.5779 121.657 67.5668 120.79 67.6557C120.157 67.7223 119.557 67.7779 119.445 67.7779C119.179 67.7779 117.812 66.0557 117.323 65.1112C116.957 64.4112 116.945 64.3557 116.945 63.0557C116.945 61.7334 116.957 61.7112 117.379 60.8334C118.423 58.6779 120.445 57.6668 122.79 58.1112ZM165.379 58.1112C167.157 58.4001 168.579 59.7668 169.19 61.7668C169.379 62.4223 169.368 63.9223 169.168 64.6001C168.89 65.5223 168.168 66.6445 167.201 67.6445C166.734 68.1223 166.59 68.2223 166.401 68.1557C166.268 68.1001 165.323 68.0557 164.279 68.0557C163.068 68.0445 162.301 68.0001 162.157 67.9112C161.79 67.7112 160.401 65.9223 160.001 65.1223C159.123 63.3668 159.579 60.8668 161.057 59.389C162.223 58.2334 163.601 57.8223 165.379 58.1112ZM145.557 70.3668C147.468 71.0001 148.39 71.5223 149.568 72.6779C150.812 73.889 151.945 75.8445 152.268 77.3334C152.323 77.5445 152.401 77.9223 152.457 78.1668C152.657 79.0668 152.957 81.8445 153.112 84.4445C153.179 85.5112 153.301 86.6557 153.39 86.9779L153.534 87.5557L152.634 88.3112C150.823 89.8223 148.901 91.3223 148.145 91.8001C146.679 92.7445 144.812 93.4001 142.79 93.6557C140.957 93.889 137.234 93.7557 133.89 93.3334C132.334 93.1334 132.423 93.2445 132.501 91.5779C132.545 90.8001 132.645 89.189 132.734 88.0001C132.812 86.8112 132.912 84.3334 132.945 82.5001C132.979 80.6668 133.068 78.789 133.123 78.3334C133.59 75.1223 135.679 72.4334 138.89 70.9223C140.568 70.1223 141.19 70.0001 143.223 70.0557C144.445 70.089 144.879 70.1445 145.557 70.3668ZM165.779 71.389C167.012 71.6779 168.745 72.4223 169.779 73.1223C170.879 73.8557 172.201 75.4001 172.868 76.7223C173.501 77.9779 173.745 79.0779 173.89 81.389C173.957 82.5557 174.057 83.6445 174.112 83.8334C174.201 84.1445 174.323 85.089 174.534 87.1668L174.634 88.0557L173.957 88.7001C172.034 90.5223 169.568 92.0223 167.168 92.8334C166.19 93.1557 164.179 93.6668 163.845 93.6668C163.59 93.6668 163.623 93.5223 164.112 92.2223C165.09 89.6334 165.123 89.4668 165.09 88.2779C165.057 87.3001 165.012 87.0779 164.701 86.4112C163.568 84.0223 160.657 82.8779 158.334 83.9223C157.823 84.1445 156.901 84.8112 156.012 85.5779C155.745 85.8112 155.479 86.0001 155.423 86.0001C155.301 86.0001 155.368 85.4334 155.679 83.8334C155.945 82.389 156.112 79.3668 155.979 78.0668C155.923 77.5112 155.79 76.689 155.679 76.2334L155.479 75.4112L155.823 74.9223C156.157 74.4445 157.501 73.2779 157.879 73.1445C157.979 73.1001 158.268 72.9334 158.534 72.7557C159.634 72.0001 161.201 71.4223 162.668 71.2112C163.423 71.1112 164.957 71.189 165.779 71.389ZM123.157 71.4001C124.612 71.6557 125.501 72.0223 128.023 73.4223C128.701 73.8001 129.479 74.4557 130.245 75.3112L130.557 75.6445L130.334 76.6223C130.145 77.4779 130.112 78.0445 130.123 80.889C130.123 85.7001 130.29 87.9334 130.901 91.1112C130.957 91.389 131.034 91.8779 131.068 92.189C131.145 92.7668 131.134 92.7779 130.857 92.7779C130.69 92.7779 130.345 92.7334 130.09 92.6668C128.157 92.2223 127.579 92.0779 127.334 92.0001C127.179 91.9557 126.857 91.8557 126.612 91.789C125.445 91.4668 122.679 90.5223 121.723 90.1223C121.601 90.0668 121.323 89.9445 121.112 89.8557C120.901 89.7557 120.323 89.5223 119.834 89.3334C117.801 88.5334 113.29 86.1557 111.601 84.989L111.123 84.6668L111.179 83.9112C111.568 78.789 112.223 76.7223 114.068 74.7779C115.557 73.2223 117.59 71.9557 119.157 71.6223C121.079 71.2001 121.812 71.1557 123.157 71.4001Z" fill="#121212"/>
<path d="M226.558 167.268H231.219C232.456 167.268 233.377 167.072 233.98 166.68C234.583 166.287 235.036 165.593 235.338 164.598L235.564 163.828H233.346L224.431 141.2H231.084L237.782 158.85L243.71 141.2H250.001L241.538 166.272C240.754 168.535 239.471 170.194 237.691 171.25C235.941 172.337 233.709 172.88 230.993 172.88H226.558V167.268Z" fill="#121212"/>
<path d="M195.642 164.771L211.482 148.491H195.391V141.2H222.231V149.12L206.391 165.4H223.174V172.628H195.642V164.771Z" fill="#121212"/>
<path d="M173.642 173.76C170.29 173.76 167.273 173.026 164.591 171.56C161.909 170.051 159.814 168.04 158.305 165.525C156.797 162.969 156.043 160.204 156.043 157.228V156.034C156.043 153.059 156.797 150.314 158.305 147.8C159.814 145.244 161.909 143.232 164.591 141.766C167.273 140.257 170.29 139.503 173.642 139.503C178.336 139.503 182.002 141.011 184.642 144.028V128.629H194.134V172.628H184.642V169.674C183.595 170.889 181.94 171.874 179.677 172.628C177.456 173.383 175.444 173.76 173.642 173.76ZM174.711 165.84C177.351 165.84 179.488 165.085 181.122 163.577C182.799 162.068 183.637 160.099 183.637 157.668V155.594C183.637 153.164 182.799 151.194 181.122 149.686C179.488 148.177 177.351 147.423 174.711 147.423C172.197 147.423 170.039 148.177 168.237 149.686C166.435 151.152 165.534 153.499 165.534 156.726C165.534 159.491 166.372 161.712 168.048 163.388C169.766 165.023 171.987 165.84 174.711 165.84Z" fill="#121212"/>
<path d="M123.045 142.105H132.097V145.665C133.102 144.378 134.41 143.312 136.019 142.467C137.668 141.622 139.478 141.2 141.45 141.2C145.875 141.2 149.194 142.427 151.406 144.881C153.659 147.335 154.785 150.814 154.785 155.32V172.276H145.674V154.294C145.674 152.605 145.03 151.277 143.743 150.312C142.496 149.306 140.907 148.803 138.976 148.803C136.964 148.803 135.335 149.326 134.088 150.372C132.841 151.418 132.217 152.826 132.217 154.596V172.276H123.045V142.105Z" fill="#121212"/>
<path d="M105.089 172.279C101.494 172.279 98.4209 171.544 95.8697 170.075C93.3571 168.607 91.463 166.732 90.1874 164.451C88.9504 162.132 88.3319 159.716 88.3319 157.203V156.275C88.3319 153.724 88.9697 151.289 90.2453 148.97C91.5596 146.65 93.4731 144.776 95.9857 143.345C98.4983 141.915 101.513 141.2 105.031 141.2C108.549 141.2 111.564 141.915 114.076 143.345C116.628 144.776 118.541 146.65 119.817 148.97C121.131 151.289 121.788 153.724 121.788 156.275V157.435C121.788 157.822 121.769 158.208 121.73 158.595H97.2033C97.5126 160.644 98.3436 162.228 99.6966 163.349C101.088 164.47 102.886 165.05 105.089 165.089C106.867 165.05 108.375 164.644 109.612 163.871C110.849 163.098 111.757 161.996 112.337 160.566H121.382C120.88 162.692 119.933 164.644 118.541 166.423C117.188 168.162 115.371 169.573 113.091 170.655C110.81 171.738 108.143 172.279 105.089 172.279ZM112.453 153.086C111.912 151.579 111.003 150.419 109.728 149.607C108.452 148.796 106.886 148.39 105.031 148.39C103.176 148.39 101.61 148.796 100.334 149.607C99.0974 150.419 98.2083 151.579 97.6672 153.086H112.453Z" fill="#121212"/>
<path d="M76.7663 141.074H86.2577V172.503H76.7663V141.074ZM81.9834 137.617C80.4749 137.617 79.2596 137.156 78.3377 136.234C77.4158 135.312 76.9549 134.16 76.9549 132.777C76.9549 131.436 77.4158 130.305 78.3377 129.383C79.2596 128.461 80.4749 128 81.9834 128C83.5339 128 84.7701 128.461 85.692 129.383C86.6139 130.305 87.0748 131.436 87.0748 132.777C87.0748 134.16 86.6139 135.312 85.692 136.234C84.7701 137.156 83.5339 137.617 81.9834 137.617Z" fill="#121212"/>
<path d="M53.7607 141.451H63.2521V145.286C64.5511 143.735 66.0178 142.562 67.652 141.766C69.3282 140.969 71.3606 140.571 73.7491 140.571H75.5091V148.366H71.612C68.6368 148.366 66.4997 148.91 65.2006 150C63.9435 151.089 63.3149 152.954 63.3149 155.594V172.88H53.7607V141.451Z" fill="#121212"/>
<path d="M34.5267 152.766C34.5267 151.467 35.0714 150.482 36.1609 149.811C37.2924 149.099 38.5076 148.743 39.8066 148.743V148.24H30.001V141.2H34.5267V139.503C34.5267 135.857 35.5114 133.133 37.4809 131.331C39.4504 129.53 42.4885 128.629 46.5952 128.629H52.5037V136.109H46.9094C44.9818 136.109 44.018 136.947 44.018 138.623V141.2H51.498V148.24H44.018V172.628H34.5267V152.766Z" fill="#121212"/>
</svg>
